HIERARCHY
ROOT hip
{
  OFFSET 0 0 0
  CHANNELS 6 Xposition Yposition Zposition Zrotation Yrotation Xrotation
  JOINT abdomen
  {
    OFFSET 0 20.6881 -0.73152
    CHANNELS 3 Zrotation Xrotation Yrotation
    JOINT chest
    {
      OFFSET 0 11.7043 -0.48768
      CHANNELS 3 Zrotation Xrotation Yrotation
      JOINT neck
      {
        OFFSET 0 22.1894 -2.19456
        CHANNELS 3 Zrotation Xrotation Yrotation
        JOINT head
        {
          OFFSET -0.24384 7.07133 1.2192
          CHANNELS 3 Zrotation Xrotation Yrotation
          JOINT leftEye
          {
            OFFSET 4.14528 8.04674 8.04672
            CHANNELS 3 Zrotation Xrotation Yrotation
            End Site
            {
              OFFSET 1 0 0
            }
          }
          JOINT rightEye
          {
            OFFSET -3.6576 8.04674 8.04672
            CHANNELS 3 Zrotation Xrotation Yrotation
            End Site
            {
              OFFSET 1 0 0
            }
          }
        }
      }
      JOINT rCollar
      {
        OFFSET -2.68224 19.2634 -4.8768
        CHANNELS 3 Zrotation Xrotation Yrotation
        JOINT rShldr
        {
          OFFSET -8.77824 -1.95073 1.46304
          CHANNELS 3 Zrotation Xrotation Yrotation
          JOINT rForeArm
          {
            OFFSET -28.1742 -1.7115 0.48768
            CHANNELS 3 Zrotation Xrotation Yrotation
            JOINT rHand
            {
              OFFSET -22.5879 0.773209 7.07136
              CHANNELS 3 Zrotation Xrotation Yrotation
              JOINT rThumb1
              {
                OFFSET -1.2192 -0.487915 3.41376
                CHANNELS 3 Zrotation Xrotation Yrotation
                JOINT rThumb2
                {
                  OFFSET -3.37035 -0.52449 3.41376
                  CHANNELS 3 Zrotation Xrotation Yrotation
                  End Site
                  {
                    OFFSET -1.78271 -1.18214 1.43049
                  }
                }
              }
              JOINT rIndex1
              {
                OFFSET -7.75947 0.938293 5.60832
                CHANNELS 3 Zrotation Xrotation Yrotation
                JOINT rIndex2
                {
                  OFFSET -2.54057 -0.884171 1.56538
                  CHANNELS 3 Zrotation Xrotation Yrotation
                  End Site
                  {
                    OFFSET -1.62519 -0.234802 1.16502
                  }
                }
              }
              JOINT rMid1
              {
                OFFSET -8.24714 1.18213 3.41376
                CHANNELS 3 Zrotation Xrotation Yrotation
                JOINT rMid2
                {
                  OFFSET -3.10165 -0.590103 1.0647
                  CHANNELS 3 Zrotation Xrotation Yrotation
                  End Site
                  {
                    OFFSET -2.48547 -0.328903 0.83742
                  }
                }
              }
              JOINT rRing1
              {
                OFFSET -8.82822 0.546677 1.51678
                CHANNELS 3 Zrotation Xrotation Yrotation
                JOINT rRing2
                {
                  OFFSET -2.60934 -0.819778 -0.0198488
                  CHANNELS 3 Zrotation Xrotation Yrotation
                  End Site
                  {
                    OFFSET -2.33842 -0.294052 0.168128
                  }
                }
              }
              JOINT rPinky1
              {
                OFFSET -8.27202 -0.0477905 -0.4584
                CHANNELS 3 Zrotation Xrotation Yrotation
                JOINT rPinky2
                {
                  OFFSET -1.82734 -0.647385 -0.700984
                  CHANNELS 3 Zrotation Xrotation Yrotation
                  End Site
                  {
                    OFFSET -1.69225 -0.51767 -0.607171
                  }
                }
              }
            }
          }
        }
      }
      JOINT lCollar
      {
        OFFSET 2.68224 19.2634 -4.8768
        CHANNELS 3 Zrotation Xrotation Yrotation
        JOINT lShldr
        {
          OFFSET 8.77824 -1.95073 1.46304
          CHANNELS 3 Zrotation Xrotation Yrotation
          JOINT lForeArm
          {
            OFFSET 28.1742 -1.7115 0.48768
            CHANNELS 3 Zrotation Xrotation Yrotation
            JOINT lHand
            {
              OFFSET 22.5879 0.773209 7.07136
              CHANNELS 3 Zrotation Xrotation Yrotation
              JOINT lThumb1
              {
                OFFSET 1.2192 -0.487915 3.41376
                CHANNELS 3 Zrotation Xrotation Yrotation
                JOINT lThumb2
                {
                  OFFSET 3.37035 -0.52449 3.41376
                  CHANNELS 3 Zrotation Xrotation Yrotation
                  End Site
                  {
                    OFFSET 1.78271 -1.18214 1.43049
                  }
                }
              }
              JOINT lIndex1
              {
                OFFSET 7.75947 0.938293 5.60832
                CHANNELS 3 Zrotation Xrotation Yrotation
                JOINT lIndex2
                {
                  OFFSET 2.54057 -0.884171 1.56538
                  CHANNELS 3 Zrotation Xrotation Yrotation
                  End Site
                  {
                    OFFSET 1.62519 -0.234802 1.16502
                  }
                }
              }
              JOINT lMid1
              {
                OFFSET 8.24714 1.18213 3.41376
                CHANNELS 3 Zrotation Xrotation Yrotation
                JOINT lMid2
                {
                  OFFSET 3.10165 -0.590103 1.0647
                  CHANNELS 3 Zrotation Xrotation Yrotation
                  End Site
                  {
                    OFFSET 2.48547 -0.328903 0.83742
                  }
                }
              }
              JOINT lRing1
              {
                OFFSET 8.82822 0.546677 1.51678
                CHANNELS 3 Zrotation Xrotation Yrotation
                JOINT lRing2
                {
                  OFFSET 2.60934 -0.819778 -0.0198488
                  CHANNELS 3 Zrotation Xrotation Yrotation
                  End Site
                  {
                    OFFSET 2.33842 -0.294052 0.168128
                  }
                }
              }
              JOINT lPinky1
              {
                OFFSET 8.27202 -0.0477905 -0.4584
                CHANNELS 3 Zrotation Xrotation Yrotation
                JOINT lPinky2
                {
                  OFFSET 1.82734 -0.647385 -0.700984
                  CHANNELS 3 Zrotation Xrotation Yrotation
                  End Site
                  {
                    OFFSET 1.69225 -0.51767 -0.607171
                  }
                }
              }
            }
          }
        }
      }
    }
  }
  JOINT rButtock
  {
    OFFSET -8.77824 4.35084 1.2192
    CHANNELS 3 Zrotation Xrotation Yrotation
    JOINT rThigh
    {
      OFFSET 0 -1.70687 -2.19456
      CHANNELS 3 Zrotation Xrotation Yrotation
      JOINT rShin
      {
        OFFSET 0 -36.8199 0.73152
        CHANNELS 3 Zrotation Xrotation Yrotation
        JOINT rFoot
        {
          OFFSET 0.73152 -45.1104 -5.12064
          CHANNELS 3 Zrotation Xrotation Yrotation
          End Site
          {
            OFFSET -1.1221 -3.69964 12.103
          }
        }
      }
    }
  }
  JOINT lButtock
  {
    OFFSET 8.77824 4.35084 1.2192
    CHANNELS 3 Zrotation Xrotation Yrotation
    JOINT lThigh
    {
      OFFSET 0 -1.70687 -2.19456
      CHANNELS 3 Zrotation Xrotation Yrotation
      JOINT lShin
      {
        OFFSET 0 -36.8199 0.73152
        CHANNELS 3 Zrotation Xrotation Yrotation
        JOINT lFoot
        {
          OFFSET -0.73152 -45.1104 -5.12064
          CHANNELS 3 Zrotation Xrotation Yrotation
          End Site
          {
            OFFSET 1.1221 -3.69964 12.103
          }
        }
      }
    }
  }
}
MOTION
Frames:	4
Frame Time:	0.03333
-13.726329152547263 59.75364357647892 -17.966173028535792 -1.1238253116607666 -48.80131530761719 8.474725723266602 -8.124247550964355 12.305472373962402 8.05191707611084 -1.2350621223449707 -11.747328758239746 2.4934754371643066 1.8839612007141113 15.30473804473877 14.8265962600708 -2.727678060531616 -21.21101188659668 27.342668533325195 0.0504210963845253 -0.3491608202457428 -0.33248141407966614 -0.24869902431964874 0.22773241996765137 -0.41263747215270996 -0.5516735315322876 -0.050177425146102905 1.1880569458007812 53.300880432128906 -24.303743362426758 0.73103266954422 -28.8797607421875 -36.8499641418457 76.60543823242188 -1.7820688486099243 32.970558166503906 5.774615287780762 -0.5973806977272034 -0.20509585738182068 0.9921287894248962 0.5866443514823914 -0.5701488852500916 -0.42833393812179565 0.22491668164730072 0.4881075322628021 -0.3817567229270935 7.571450710296631 5.263346195220947 -0.45552003383636475 0.16561470925807953 -0.012140343897044659 -0.18236514925956726 2.840155601501465 -0.2237311452627182 -0.31597110629081726 -0.3122755289077759 0.3697280287742615 -0.28415629267692566 10.790960311889648 1.9389045238494873 -0.5829796195030212 -0.053266555070877075 -0.24605967104434967 0.10286705940961838 2.6504955291748047 -0.8719502687454224 0.12287907302379608 -0.33891311287879944 0.4623316526412964 -0.2116602212190628 41.2278938293457 70.17813110351562 -115.01200103759766 27.600133895874023 -41.9080810546875 -88.035400390625 127.800048828125 -78.88471221923828 137.2129669189453 -0.8606805205345154 0.15209205448627472 0.44005492329597473 -0.02988610230386257 0.5780029296875 0.10990475863218307 0.09971511363983154 -0.6504941582679749 -0.03999936580657959 -7.417080879211426 4.610873222351074 -1.2525393962860107 0.16367916762828827 -0.07320838421583176 0.7520279884338379 -1.855065107345581 1.3047398328781128 -0.21280939877033234 -0.04951060190796852 -0.6819043755531311 0.6178305149078369 -10.290526390075684 0.8712924718856812 0.3212490677833557 -0.5667806267738342 0.2112257182598114 -0.3324478268623352 -2.4824516773223877 -0.04815613478422165 0.7621659636497498 -0.5967891812324524 0.30043700337409973 -0.21110942959785461 -79.3990249633789 -44.2286262512207 -75.91980743408203 -2.0158984661102295 80.35070037841797 1.9484148025512695 0.5740423202514648 12.431519508361816 5.595154762268066 -0.263471394777298 0.6280066967010498 -0.42666107416152954 23.21356773376465 -49.52249526977539 38.222084045410156 168.40927124023438 87.92698669433594 -170.07591247558594 22.267253875732422 -31.287410736083984 32.873172760009766
-14.018129348042196 59.33924916934508 -18.005053560220972 -1.107758641242981 -48.896854400634766 8.798702239990234 -8.148761749267578 12.15068244934082 8.006553649902344 -1.2109869718551636 -11.768304824829102 2.4982657432556152 1.8753217458724976 15.32677936553955 14.771340370178223 -2.621656894683838 -21.005149841308594 27.342159271240234 0.0667140856385231 -0.3914828300476074 -0.3168306052684784 -0.28922805190086365 0.2394600510597229 -0.4043874442577362 -0.5390415787696838 -0.03801944851875305 1.1717686653137207 53.24790573120117 -24.544376373291016 0.7147936224937439 -28.891311645507812 -36.86420440673828 76.65375518798828 -1.7228220701217651 32.85527038574219 5.736492156982422 -0.617107629776001 -0.22449418902397156 0.9746929407119751 0.5958530306816101 -0.6059530377388 -0.4460563063621521 0.23102784156799316 0.4684733748435974 -0.40619128942489624 7.541119575500488 5.280376434326172 -0.4241025149822235 0.15790872275829315 -0.025447582826018333 -0.17779400944709778 2.8415110111236572 -0.233576700091362 -0.34176307916641235 -0.3214637041091919 0.3652660548686981 -0.26847925782203674 10.785143852233887 1.9369184970855713 -0.6185178756713867 -0.045232709497213364 -0.24919745326042175 0.09454834461212158 2.6152701377868652 -0.8857288956642151 0.1664206087589264 -0.33320239186286926 0.45530104637145996 -0.21371465921401978 41.0133171081543 70.1412124633789 -114.75994873046875 27.555034637451172 -41.94792556762695 -88.09916687011719 128.04888916015625 -78.83695220947266 137.4893798828125 -0.87205970287323 0.14353178441524506 0.47362321615219116 -0.08298209309577942 0.6004098653793335 0.09841998666524887 0.08238714188337326 -0.6840595006942749 -0.05052785575389862 -7.408613204956055 4.631112098693848 -1.264436960220337 0.18162603676319122 -0.09606174379587173 0.7649852633476257 -1.8052992820739746 1.2545409202575684 -0.21596316993236542 -0.05224711820483208 -0.6625195741653442 0.643873393535614 -10.29628849029541 0.8445988297462463 0.31862589716911316 -0.5521523356437683 0.21984204649925232 -0.3548232614994049 -2.479764699935913 -0.08322862535715103 0.7862908840179443 -0.605476438999176 0.30938804149627686 -0.23652411997318268 -79.46141815185547 -44.00130844116211 -76.08108520507812 -2.2446534633636475 80.60018157958984 2.1700620651245117 0.5670801401138306 12.146916389465332 5.602752208709717 -0.22886162996292114 0.6119397878646851 -0.457125186920166 23.835107803344727 -49.54087448120117 38.934391021728516 170.22579956054688 87.68058013916016 -171.94642639160156 22.19401741027832 -31.483884811401367 32.74285888671875
-14.30041935889153 60.15067564274259 -18.01024535776383 -0.9800320267677307 -48.6465950012207 8.851835250854492 -8.21617603302002 12.183505058288574 7.883103370666504 -1.1100406646728516 -11.689712524414062 2.430138349533081 1.7507507801055908 15.268832206726074 14.499690055847168 -2.497913122177124 -20.873905181884766 26.875303268432617 0.056593481451272964 -0.3896084725856781 -0.3351938724517822 -0.3336486518383026 0.23517169058322906 -0.37672150135040283 -0.4961467385292053 -0.0296021718531847 1.1685707569122314 53.221378326416016 -24.373214721679688 0.937075138092041 -28.755111694335938 -36.53413772583008 76.36307525634766 -1.6779687404632568 32.60170364379883 5.616885662078857 -0.6188182830810547 -0.21412205696105957 0.8921502828598022 0.5942772626876831 -0.6361757516860962 -0.4668762683868408 0.18352177739143372 0.41085344552993774 -0.40982502698898315 7.584252834320068 5.287241458892822 -0.40517091751098633 0.1690884828567505 0.02602921426296234 -0.17263029515743256 2.821528196334839 -0.22953252494335175 -0.3847915828227997 -0.3019893765449524 0.38790085911750793 -0.3314170837402344 10.746777534484863 1.8997803926467896 -0.6279087066650391 -0.02626125141978264 -0.21615257859230042 0.08467631042003632 2.6048519611358643 -0.8793060183525085 0.1764974594116211 -0.33636659383773804 0.4437450170516968 -0.2036740481853485 40.08534240722656 70.28010559082031 -113.85233306884766 27.4979190826416 -41.784996032714844 -87.97272491455078 126.41585540771484 -79.13330078125 135.8201446533203 -0.8467386960983276 0.17338620126247406 0.4527257978916168 -0.1382075846195221 0.5749977231025696 0.07954763621091843 0.08488326519727707 -0.6374234557151794 -0.005280470009893179 -7.3989481925964355 4.597438335418701 -1.2359622716903687 0.19501057267189026 -0.14472025632858276 0.7622925043106079 -1.7971253395080566 1.1847693920135498 -0.21929658949375153 -0.07398274540901184 -0.6379871368408203 0.605027973651886 -10.309483528137207 0.8545696139335632 0.2879215180873871 -0.5256598591804504 0.248526930809021 -0.39679887890815735 -2.504535675048828 -0.14002545177936554 0.7564235925674438 -0.607342541217804 0.32783427834510803 -0.17033347487449646 -79.36448669433594 -44.21434783935547 -75.87162017822266 -2.105912208557129 80.56299591064453 2.0806987285614014 0.5675588846206665 12.057917594909668 5.559217929840088 -0.22562702000141144 0.5795059204101562 -0.42219772934913635 23.595848083496094 -49.343685150146484 38.58150100708008 167.9497833251953 88.12068939208984 -169.6824951171875 22.038002014160156 -31.24234962463379 32.583404541015625
-14.546806480368693 60.49189823329809 -18.003721033002588 -0.8392444252967834 -48.4178466796875 8.895378112792969 -8.278958320617676 12.228867530822754 7.792967796325684 -1.0821598768234253 -11.649100303649902 2.3807146549224854 1.7355892658233643 15.205476760864258 14.425989151000977 -2.551844596862793 -20.975847244262695 26.668685913085938 0.05817776173353195 -0.335233211517334 -0.35794344544410706 -0.3411858379840851 0.190358504652977 -0.3537905216217041 -0.4850488603115082 -0.003962563816457987 1.147886872291565 53.29341125488281 -24.444080352783203 1.1089646816253662 -28.626089096069336 -36.29812240600586 76.12430572509766 -1.6610941886901855 32.53936767578125 5.554036617279053 -0.6099865436553955 -0.18044741451740265 0.8459404706954956 0.5761134624481201 -0.6116801500320435 -0.48376232385635376 0.16614873707294464 0.3705037236213684 -0.421702116727829 7.615242004394531 5.285066604614258 -0.40720251202583313 0.19597813487052917 0.0369107685983181 -0.13082975149154663 2.8165295124053955 -0.228367879986763 -0.39512839913368225 -0.2818245589733124 0.4067598879337311 -0.38411378860473633 10.7045316696167 1.8363525867462158 -0.6049903035163879 -0.028085803613066673 -0.21005357801914215 0.07706735283136368 2.6386094093322754 -0.853370726108551 0.18073491752147675 -0.3532581329345703 0.4419054388999939 -0.2046419233083725 39.839237213134766 70.20951843261719 -113.65900421142578 27.472890853881836 -41.713340759277344 -87.94332885742188 125.98053741455078 -79.18737030029297 135.3995819091797 -0.817509651184082 0.2183464765548706 0.4592491686344147 -0.13621866703033447 0.5765441060066223 0.045692116022109985 0.0743739977478981 -0.5568065047264099 0.01604948751628399 -7.3773298263549805 4.5560407638549805 -1.1909111738204956 0.19145700335502625 -0.15913887321949005 0.7166419625282288 -1.807722568511963 1.1744260787963867 -0.1900913268327713 -0.09518390893936157 -0.6175990700721741 0.5911908149719238 -10.281957626342773 0.8640058040618896 0.26543283462524414 -0.5117564797401428 0.28679123520851135 -0.4192560911178589 -2.5270352363586426 -0.15916207432746887 0.7146466374397278 -0.5846228003501892 0.3372787833213806 -0.11776135861873627 -79.37091827392578 -44.436195373535156 -75.80329132080078 -1.840054988861084 80.4688720703125 1.8321419954299927 0.620546817779541 12.262289047241211 5.514002323150635 -0.23416276276111603 0.5501394867897034 -0.4164827764034271 22.9740047454834 -49.13112258911133 37.981998443603516 164.05792236328125 88.52156066894531 -165.78500366210938 22.021617889404297 -30.935468673706055 32.627906799316406
